<svg xmlns="http://www.w3.org/2000/svg" width="512" height="512" viewBox="0 0 512 512">
  <defs>
    <linearGradient id="bg" x1="0%" y1="0%" x2="100%" y2="100%">
      <stop offset="0%" style="stop-color:#E0E5EC"/>
      <stop offset="100%" style="stop-color:#D0D5DC"/>
    </linearGradient>
    <linearGradient id="accent" x1="0%" y1="0%" x2="100%" y2="100%">
      <stop offset="0%" style="stop-color:#7C9EBC"/>
      <stop offset="100%" style="stop-color:#A78BFA"/>
    </linearGradient>
    <filter id="shadow" x="-20%" y="-20%" width="140%" height="140%">
      <feDropShadow dx="8" dy="8" stdDeviation="16" flood-color="#a3b1c6" flood-opacity="0.6"/>
      <feDropShadow dx="-8" dy="-8" stdDeviation="16" flood-color="#ffffff" flood-opacity="0.5"/>
    </filter>
  </defs>
  
  <!-- Background -->
  <rect width="512" height="512" rx="100" fill="url(#bg)"/>
  
  <!-- Central circle with brain icon -->
  <circle cx="256" cy="256" r="140" fill="url(#accent)" filter="url(#shadow)"/>
  
  <!-- Brain symbol simplified -->
  <g fill="white" transform="translate(176, 176) scale(1.3)">
    <path d="M64 32c-17.7 0-32 14.3-32 32s14.3 32 32 32c4.5 0 8.8-.9 12.7-2.6C81.5 99.5 88 104 96 104c8.8 0 16-7.2 16-16V64c0-17.7-14.3-32-32-32zM32 96c-17.7 0-32 14.3-32 32s14.3 32 32 32h16c0-17.7 14.3-32 32-32 8 0 15.3-3 20.9-8-6.4-13.3-20.1-22-35.3-22H32zm80 32c-17.7 0-32 14.3-32 32s14.3 32 32 32 32-14.3 32-32-14.3-32-32-32z"/>
  </g>
  
  <!-- "CM" text -->
  <text x="256" y="420" text-anchor="middle" font-family="Inter, system-ui, sans-serif" font-weight="600" font-size="48" fill="#444444">CM</text>
</svg>
